<?xml version="1.0" standalone="no"?>
<!DOCTYPE svg PUBLIC "-//W3C//DTD SVG 20010904//EN"
 "http://www.w3.org/TR/2001/REC-SVG-20010904/DTD/svg10.dtd">
<svg version="1.0" xmlns="http://www.w3.org/2000/svg"
 width="512.000000pt" height="512.000000pt" viewBox="0 0 512.000000 512.000000"
 preserveAspectRatio="xMidYMid meet">

<g transform="translate(0.000000,512.000000) scale(0.100000,-0.100000)"
fill="#000000" stroke="none">
<path d="M777 5106 c-79 -29 -140 -89 -165 -165 -8 -21 -12 -109 -12 -233 0
-215 -8 -253 -53 -262 -12 -3 -78 -7 -147 -9 -96 -4 -138 -9 -181 -26 -79 -30
-141 -88 -181 -169 l-33 -67 0 -1275 0 -1275 26 -56 c33 -69 91 -130 158 -163
l49 -25 -120 -478 -120 -478 4 -120 c3 -98 8 -127 25 -160 25 -47 74 -95 123
-121 34 -18 104 -19 2070 -19 l2035 0 41 22 c57 30 111 97 129 157 9 30 15 90
15 150 -1 95 -7 128 -119 574 l-119 473 49 25 c95 48 158 134 180 247 l12 57
241 0 c240 0 242 0 294 26 29 14 65 42 82 62 61 74 60 64 60 763 0 692 1 680
-56 755 -46 60 -105 87 -201 92 l-83 5 0 517 0 517 48 18 c68 26 153 115 180
188 64 170 -5 350 -166 429 -60 30 -75 33 -152 32 -103 -1 -157 -22 -229 -89
-97 -90 -131 -235 -87 -363 25 -74 109 -163 181 -193 l55 -23 0 -518 0 -518
-84 0 -85 0 -3 383 c-3 373 -4 383 -26 431 -72 157 -184 215 -413 216 -162 0
-153 -15 -159 267 -4 197 -8 233 -24 263 -26 49 -74 98 -121 123 l-40 22
-1420 2 c-1174 2 -1427 0 -1458 -11z m2864 -185 l29 -29 0 -204 c0 -112 5
-220 10 -240 15 -53 69 -119 120 -148 41 -22 60 -25 196 -30 170 -7 203 -18
246 -88 l23 -37 0 -1245 0 -1245 -22 -35 c-12 -20 -40 -46 -61 -58 l-40 -22
-1922 0 c-2153 0 -1965 -7 -2018 73 l-27 41 -3 1234 c-2 1198 -2 1235 17 1277
12 28 34 53 61 71 40 26 49 28 193 33 143 6 155 8 199 34 26 15 59 43 74 62
46 60 54 110 54 327 l0 200 29 29 29 29 1392 0 1392 0 29 -29z m1148 -4 c134
-89 69 -307 -92 -307 -114 0 -196 101 -168 208 32 116 160 165 260 99z m122
-1690 c38 -29 39 -39 39 -667 0 -646 -1 -657 -45 -674 -9 -3 -118 -6 -241 -6
l-224 0 0 680 0 680 228 0 c163 -1 231 -4 243 -13z m-872 -1904 c21 -81 201
-803 201 -808 0 -3 -909 -5 -2020 -5 -1365 0 -2020 3 -2020 10 0 10 197 803
205 828 3 9 375 12 1814 12 l1810 0 10 -37z m229 -1045 c-4 -51 -9 -65 -32
-85 l-27 -23 -1990 0 -1991 0 -29 29 c-25 26 -29 37 -29 85 l0 56 2051 0 2051
0 -4 -62z"/>
<path d="M1112 4761 c-162 -56 -223 -256 -119 -393 47 -61 123 -98 201 -98
145 0 255 108 256 250 0 109 -77 214 -181 244 -67 20 -92 20 -157 -3z m146
-187 c48 -54 10 -134 -63 -134 -69 0 -108 73 -69 128 33 48 92 50 132 6z"/>
<path d="M1796 4764 c-108 -34 -187 -160 -171 -274 10 -70 60 -148 119 -185
67 -41 173 -48 241 -15 55 26 121 100 135 149 14 52 12 136 -4 176 -52 125
-192 190 -320 149z m142 -186 c28 -27 29 -76 1 -112 -38 -48 -124 -28 -144 34
-9 30 13 78 44 95 31 18 68 11 99 -17z"/>
<path d="M2503 4771 c-117 -30 -195 -130 -194 -252 0 -71 21 -122 69 -173 52
-54 104 -76 182 -76 107 0 190 53 234 150 56 123 -7 284 -130 336 -41 17 -122
25 -161 15z m96 -176 c31 -15 54 -65 44 -93 -32 -92 -163 -78 -163 18 0 39 13
61 45 78 27 15 41 15 74 -3z"/>
<path d="M3185 4771 c-46 -11 -88 -36 -124 -73 -48 -48 -63 -85 -69 -158 -6
-85 22 -154 84 -209 136 -119 358 -58 409 113 30 100 9 183 -65 257 -66 66
-150 90 -235 70z m117 -188 c25 -23 32 -67 14 -101 -39 -75 -156 -45 -156 41
0 33 25 67 60 80 21 8 62 -2 82 -20z"/>
<path d="M431 4073 c-18 -9 -45 -34 -60 -57 l-26 -40 0 -1075 0 -1076 22 -35
c12 -20 40 -46 61 -58 l40 -22 1752 0 c1273 0 1757 3 1773 11 50 26 86 72 97
123 8 36 10 363 8 1086 -3 988 -4 1037 -22 1073 -10 20 -33 47 -50 60 l-31 22
-1765 2 c-1625 2 -1768 1 -1799 -14z m3499 -1173 l0 -1020 -1710 0 -1710 0 0
1020 0 1020 1710 0 1710 0 0 -1020z"/>
<path d="M880 3743 c-35 -13 -72 -47 -90 -83 -19 -38 -20 -62 -20 -760 0 -698
1 -722 20 -760 11 -21 34 -49 52 -62 33 -23 34 -23 354 -23 l321 0 35 27 c72
55 69 13 66 832 -3 728 -3 735 -24 763 -11 15 -36 38 -54 51 -32 22 -37 22
-339 21 -168 0 -313 -3 -321 -6z m570 -333 l0 -170 -255 0 -255 0 0 170 0 170
255 0 255 0 0 -170z m0 -510 l0 -170 -255 0 -255 0 0 170 0 170 255 0 255 0 0
-170z m0 -510 l0 -170 -255 0 -255 0 0 170 0 170 255 0 255 0 0 -170z"/>
<path d="M1875 3726 c-22 -13 -49 -39 -60 -58 -19 -32 -20 -54 -23 -743 -2
-512 0 -721 8 -750 13 -44 50 -89 92 -111 39 -20 603 -20 651 0 42 17 83 66
97 114 14 51 14 1393 0 1444 -6 21 -22 51 -37 68 -50 59 -53 60 -385 60 -302
0 -303 0 -343 -24z m603 -313 l-3 -168 -257 -3 -258 -2 0 170 0 170 260 0 260
0 -2 -167z m2 -513 l0 -170 -260 0 -260 0 0 170 0 170 260 0 260 0 0 -170z
m-2 -512 l2 -168 -260 0 -260 0 0 170 0 170 258 -2 257 -3 3 -167z"/>
<path d="M2900 3728 c-19 -13 -45 -39 -57 -57 l-23 -35 2 -742 c3 -732 3 -743
24 -770 11 -15 33 -37 48 -48 26 -20 42 -21 339 -24 308 -2 313 -2 351 20 25
14 48 40 63 67 l23 44 0 716 c0 677 -1 718 -19 757 -10 23 -34 52 -52 65 -34
24 -35 24 -349 27 -316 3 -316 3 -350 -20z m600 -318 l0 -170 -255 0 -255 0 0
170 0 170 255 0 255 0 0 -170z m0 -510 l0 -170 -255 0 -255 0 0 170 0 170 255
0 255 0 0 -170z m0 -510 l0 -170 -255 0 -255 0 0 170 0 170 255 0 255 0 0
-170z"/>
<path d="M670 1183 c-67 -25 -95 -72 -134 -223 -33 -125 -27 -168 29 -225 48
-47 86 -55 270 -55 258 1 283 19 339 240 29 118 26 155 -21 210 -47 57 -63 60
-275 59 -106 0 -200 -3 -208 -6z m350 -165 c0 -6 -9 -47 -21 -90 l-21 -78
-144 0 c-91 0 -144 4 -144 10 0 6 10 44 22 85 l22 74 120 4 c67 1 131 4 144 5
12 1 22 -3 22 -10z"/>
<path d="M1505 1171 c-57 -35 -76 -67 -106 -173 -42 -151 -37 -209 23 -265 48
-45 86 -53 263 -53 127 0 174 4 203 15 40 17 78 49 94 79 15 28 68 227 68 255
0 46 -40 110 -84 136 -42 24 -48 25 -237 25 -172 0 -197 -2 -224 -19z m367
-146 c2 -3 -5 -42 -17 -88 l-22 -82 -146 -3 c-81 -1 -147 1 -147 5 0 5 11 42
23 83 l24 75 124 5 c68 3 131 7 140 8 9 1 18 0 21 -3z"/>
<path d="M3165 1176 c-123 -31 -203 -84 -240 -161 -22 -45 -26 -63 -21 -99 34
-225 494 -314 750 -145 62 42 96 100 96 168 0 63 -16 96 -71 145 -80 73 -192
106 -354 105 -60 0 -132 -6 -160 -13z m315 -175 c64 -20 100 -44 100 -68 0
-21 -96 -61 -177 -73 -91 -14 -204 0 -272 35 -59 30 -66 38 -45 59 63 63 265
87 394 47z"/>
</g>
</svg>
