<?xml version="1.0" standalone="no"?>
<!DOCTYPE svg PUBLIC "-//W3C//DTD SVG 20010904//EN"
 "http://www.w3.org/TR/2001/REC-SVG-20010904/DTD/svg10.dtd">
<svg version="1.0" xmlns="http://www.w3.org/2000/svg"
 width="500.000000pt" height="500.000000pt" viewBox="0 0 500.000000 500.000000"
 preserveAspectRatio="xMidYMid meet">
<metadata>
Created by potrace 1.16, written by Peter Selinger 2001-2019
</metadata>
<g transform="translate(0.000000,500.000000) scale(0.100000,-0.100000)"
fill="#000000" stroke="none">
<path d="M0 2500 l0 -2500 2500 0 2500 0 0 705 c0 388 -2 705 -4 705 -2 0 -20
-24 -39 -53 -20 -30 -43 -59 -51 -66 -9 -8 -16 -18 -16 -23 0 -5 -16 -27 -37
-48 -43 -47 -72 -51 -99 -13 -35 48 -53 62 -89 69 -20 3 -38 4 -41 2 -2 -3 -5
-21 -6 -41 -1 -28 5 -41 25 -57 14 -11 37 -45 51 -75 37 -77 33 -149 -4 -75
-8 17 -32 54 -52 83 -33 45 -38 61 -42 122 -2 39 -8 85 -12 104 -6 29 -5 33 8
28 10 -3 29 7 50 27 58 55 64 59 90 46 13 -7 33 -24 45 -38 30 -35 53 -26 148
58 l74 65 1 125 0 125 -58 -58 c-31 -32 -83 -74 -114 -95 -31 -20 -69 -48 -85
-62 -15 -14 -44 -36 -63 -50 -48 -34 -89 -82 -90 -103 0 -39 -18 -4 -24 49 -8
68 -16 83 -69 140 -23 24 -60 63 -82 88 -22 24 -45 44 -51 45 -7 1 -15 8 -18
17 -3 9 -12 14 -19 11 -6 -2 -20 0 -30 5 -11 5 -35 12 -54 14 -19 3 -45 10
-57 16 -21 12 -27 14 -46 17 -6 0 -16 12 -22 26 -17 37 -66 63 -123 66 -31 2
-55 9 -67 21 -10 10 -24 18 -31 18 -7 0 -19 9 -27 20 -11 16 -26 20 -71 20
-65 0 -121 -9 -115 -19 3 -4 -11 -5 -30 -3 -33 4 -38 10 -35 45 3 21 -12 22
-33 2 -8 -8 -26 -15 -41 -15 -22 0 -25 3 -20 20 4 12 2 20 -5 20 -6 0 -8 5 -5
11 4 6 -3 13 -15 16 -14 4 -19 11 -15 21 9 23 -33 46 -80 44 -36 -1 -38 0 -17
10 30 15 28 38 -3 38 -15 0 -29 -9 -36 -22 -15 -27 -12 -100 4 -110 8 -5 8 -8
2 -8 -20 0 -35 24 -35 53 0 22 -14 43 -58 87 -32 31 -76 68 -97 82 l-40 25
-37 -30 c-20 -16 -41 -26 -47 -22 -18 11 -12 41 13 66 13 13 27 35 31 49 4 14
20 45 35 70 15 25 33 63 40 85 7 22 16 42 20 45 3 3 14 32 25 65 18 61 47 101
65 90 6 -4 10 13 10 44 0 49 1 50 33 53 25 2 31 7 29 22 -3 17 18 38 63 61 14
7 22 24 25 55 3 25 9 51 13 58 5 7 3 12 -5 12 -7 0 -1 10 15 23 24 19 27 29
27 72 -2 76 3 94 23 101 12 4 16 12 12 25 -4 10 -2 19 3 19 5 0 14 12 20 26 7
14 17 22 22 19 6 -4 10 10 10 36 0 36 -2 40 -15 29 -13 -10 -15 -9 -15 8 0 11
7 27 15 36 8 8 15 25 15 38 0 32 17 57 28 41 4 -7 8 10 7 40 0 33 -7 62 -19
79 -10 15 -22 54 -26 85 -4 32 -15 93 -25 137 -21 98 -14 170 16 161 27 -9 44
34 20 52 -9 6 -20 8 -25 3 -28 -28 -66 39 -90 160 -15 73 -23 90 -54 123 -20
20 -45 37 -57 37 -26 1 -45 30 -69 103 -11 32 -24 56 -30 54 -6 -3 -18 2 -25
11 -13 13 -12 14 13 8 l28 -7 -6 58 c-5 36 -2 83 6 123 10 46 11 80 4 118 -5
32 -5 76 0 110 8 49 12 57 33 60 49 7 69 -5 76 -49 6 -36 12 -43 49 -60 57
-26 81 -46 64 -52 -9 -4 -9 -6 -1 -6 6 -1 20 13 30 29 9 17 20 30 24 30 4 0
10 17 14 38 3 20 9 47 12 60 l5 22 -651 0 c-407 0 -651 -4 -651 -10 0 -5 11
-21 25 -35 26 -25 21 -36 -5 -12 -7 6 -4 -4 7 -23 11 -19 25 -34 31 -33 13 3
27 -41 18 -56 -4 -5 2 -12 13 -16 28 -8 15 -42 -18 -48 -15 -3 -41 -4 -58 -1
-17 3 -34 0 -38 -6 -3 -5 -17 -10 -30 -10 -15 0 -31 -10 -40 -24 -9 -13 -30
-30 -48 -36 -44 -17 -116 -49 -150 -66 -16 -8 -36 -14 -45 -13 -10 0 -5 5 10
11 29 10 31 17 28 80 -1 20 8 54 20 78 16 31 22 64 24 119 1 42 0 82 -2 89 -3
9 -214 12 -1008 12 l-1004 0 0 -2500z m2995 2469 c51 -13 64 -31 56 -71 -5
-24 -14 -34 -35 -39 -16 -5 -33 -13 -37 -20 -13 -21 -56 -1 -78 37 -25 42 -27
67 -5 88 18 19 44 20 99 5z m38 -179 c50 -22 62 -44 53 -95 -9 -49 -28 -60
-75 -46 -21 6 -49 11 -61 11 -14 0 -39 16 -61 39 l-39 39 25 16 c14 9 25 25
25 36 0 17 7 20 44 20 24 0 64 -9 89 -20z m-1380 -100 c3 -10 0 -21 -7 -24 -7
-3 -6 -8 4 -15 12 -8 12 -13 2 -23 -6 -6 -12 -18 -12 -26 0 -8 -7 -20 -15 -26
-9 -6 -22 -35 -29 -63 -8 -29 -21 -59 -29 -67 -8 -9 -36 -57 -62 -108 -57
-111 -70 -128 -103 -128 -24 0 -25 2 -19 55 5 45 12 61 41 91 20 21 36 43 36
49 0 7 6 15 14 18 8 3 28 35 45 71 17 37 45 85 61 108 17 22 30 49 30 60 0 10
5 18 10 18 6 0 10 7 10 15 0 22 17 18 23 -5z m-431 -151 c-2 -19 -7 -72 -12
-118 -5 -46 -7 -88 -3 -94 3 -6 1 -7 -5 -3 -12 7 -18 -35 -14 -96 1 -15 -3
-30 -8 -33 -6 -3 -10 -15 -10 -25 0 -13 -9 -22 -26 -26 -29 -7 -34 -4 -64 50
-19 35 -20 44 -10 86 6 26 19 56 29 67 10 10 15 25 13 32 -3 8 0 11 6 7 6 -4
9 12 7 45 -3 63 13 119 31 112 8 -3 14 0 14 7 0 7 7 10 15 6 9 -3 15 0 15 10
0 9 6 14 13 11 7 -2 11 -17 9 -38z m1096 -236 c4 -5 14 -13 22 -16 8 -3 -1 -6
-21 -6 -43 -1 -51 -8 -39 -32 7 -12 7 -20 0 -24 -15 -9 -12 -35 4 -35 8 0 34
-22 59 -50 25 -27 50 -50 56 -50 6 0 11 -4 11 -9 0 -5 9 -11 20 -14 16 -4 20
-13 20 -44 0 -48 -8 -59 -40 -56 -109 9 -230 60 -230 96 0 13 -9 41 -21 62
-26 50 -27 130 -2 157 16 18 16 18 -3 12 -17 -7 -18 -6 -5 10 12 14 27 16 88
13 41 -2 78 -8 81 -14z m738 -165 c3 -12 11 -17 20 -14 8 3 13 2 10 -3 -3 -5
1 -12 10 -15 10 -4 13 -13 9 -25 -3 -10 1 -24 10 -31 17 -14 21 -45 5 -35 -6
3 -13 0 -16 -9 -3 -8 -18 -18 -34 -21 -16 -3 -34 -13 -41 -21 -13 -16 -119
-20 -119 -4 0 6 -11 10 -25 10 -27 0 -35 24 -11 33 7 3 23 26 35 51 44 90 129
139 147 84z m-1702 -71 c-5 -29 -75 -212 -95 -247 -4 -8 -19 -37 -32 -65 -28
-57 -61 -95 -83 -95 -26 0 -55 20 -64 45 -21 55 92 242 201 331 8 7 25 25 38
42 30 37 42 33 35 -11z m1056 -986 c0 -8 -24 -26 -80 -60 -8 -5 -28 -13 -45
-18 -20 -6 -29 -15 -27 -26 2 -9 -2 -17 -8 -17 -6 0 -8 -4 -5 -10 3 -6 -5 -10
-18 -10 -14 0 -27 7 -31 15 -7 20 -23 19 -28 -3 -4 -12 -14 -17 -34 -17 -38 2
-47 40 -12 55 13 6 34 17 48 25 14 8 45 15 70 15 25 0 54 7 64 15 11 8 27 15
37 15 9 0 22 7 29 15 14 16 40 20 40 6z m-1327 -196 c15 -14 27 -32 27 -40 0
-7 5 -26 12 -42 6 -15 13 -41 15 -58 2 -16 7 -37 10 -45 9 -21 14 -41 20 -75
3 -16 10 -35 15 -42 5 -7 7 -17 3 -23 -4 -6 3 -27 14 -46 22 -38 27 -79 11
-89 -5 -3 -10 -15 -10 -26 0 -22 -17 -24 -75 -8 -59 16 -72 33 -91 118 -9 42
-24 86 -32 98 -11 18 -13 50 -11 144 4 113 6 122 28 140 30 24 31 24 64 -6z
m640 -66 c79 -36 103 -64 116 -133 6 -33 11 -82 11 -108 0 -72 -45 -278 -61
-278 -5 0 -9 -8 -9 -19 0 -34 -26 -46 -69 -31 -35 11 -40 11 -60 -9 -11 -11
-21 -25 -21 -31 0 -5 -9 -19 -20 -30 -11 -11 -17 -26 -14 -33 3 -8 -7 -19 -23
-27 -30 -15 -102 -87 -104 -104 -1 -6 -3 -21 -4 -33 -3 -31 -23 -53 -49 -53
-21 0 -61 19 -41 20 6 0 15 11 21 24 11 24 11 24 -70 32 -134 13 -213 0 -240
-41 -18 -28 -66 -35 -66 -10 0 20 -19 19 -27 -1 -5 -13 -8 -12 -24 5 -11 11
-19 27 -19 35 0 20 -21 66 -30 66 -16 0 -33 -33 -34 -66 -1 -22 -9 -39 -22
-49 -12 -8 -27 -28 -34 -44 -12 -30 -54 -51 -102 -51 -9 0 -26 -12 -37 -26
-13 -17 -26 -24 -36 -20 -9 3 -14 2 -11 -3 6 -9 -15 -21 -35 -21 -5 0 -14 11
-19 25 -5 14 -14 25 -20 25 -5 0 -10 14 -10 30 0 26 -3 30 -27 29 -16 0 -23
-3 -16 -5 11 -5 9 -13 -23 -82 0 -1 -16 5 -34 14 -26 14 -30 18 -17 25 20 12
11 47 -15 55 -13 4 -28 -1 -41 -14 -12 -11 -33 -23 -47 -27 -14 -4 -42 -19
-62 -31 -21 -13 -42 -24 -48 -24 -5 0 -10 -4 -10 -9 0 -15 -41 -21 -46 -7 -7
18 147 171 197 197 27 13 39 25 35 35 -4 11 4 14 34 14 22 0 40 4 40 9 0 4 20
14 44 21 42 11 62 32 51 50 -3 4 2 11 11 14 12 5 15 2 11 -13 -10 -39 7 -46
67 -28 59 19 74 37 31 37 -20 0 -25 5 -25 24 0 13 7 27 16 30 28 11 54 6 54
-9 0 -11 -7 -14 -24 -9 -13 3 -27 1 -30 -5 -4 -6 5 -13 21 -17 15 -4 36 -13
45 -22 10 -8 27 -12 38 -9 13 3 23 0 27 -9 6 -17 74 -19 90 -3 8 8 15 4 26
-12 l16 -22 20 24 c11 13 20 27 21 30 0 3 30 9 66 12 37 4 77 13 90 22 13 8
34 15 47 15 13 0 32 9 41 19 10 11 23 18 29 15 8 -3 13 10 15 32 1 21 9 64 18
98 15 56 14 61 -2 73 -12 9 -14 16 -7 25 10 13 22 66 27 118 2 14 4 31 4 38 1
7 8 12 15 11 24 -3 53 13 62 33 8 17 21 22 60 25 59 5 117 21 110 32 -2 5 7
18 20 29 14 12 26 26 26 32 1 5 2 16 3 23 1 6 12 11 24 10 24 -3 31 24 11 44
-17 17 -3 58 23 70 21 9 23 8 26 -24 2 -23 10 -37 25 -44z m-15 -662 c2 -22
10 -41 18 -44 8 -3 14 -12 14 -21 0 -9 10 -26 21 -39 21 -22 21 -24 5 -66 -9
-24 -20 -70 -25 -103 -5 -32 -9 -49 -10 -36 -2 39 -21 24 -21 -17 0 -22 -4
-43 -10 -46 -15 -9 -12 85 3 115 24 46 26 68 7 73 -12 3 -19 19 -23 57 -4 30
-11 58 -17 64 -11 11 -14 89 -3 100 18 17 38 -1 41 -37z m1456 30 c8 -7 17
-24 21 -37 4 -14 11 -29 15 -35 5 -5 11 -32 15 -60 4 -29 15 -56 25 -65 13
-11 19 -31 21 -70 4 -92 2 -98 -31 -105 -17 -4 -28 -10 -26 -14 7 -11 -61 -53
-91 -55 -15 -1 -38 -6 -49 -9 -27 -9 -40 18 -19 39 8 8 12 21 9 28 -3 7 14 28
39 47 51 39 92 93 82 108 -3 6 -2 11 3 11 6 0 12 16 14 35 2 19 1 35 -3 35 -4
0 -12 14 -19 30 -7 17 -16 30 -20 30 -7 0 -30 68 -30 89 0 15 28 14 44 -2z
m16 -748 c0 -31 -8 -62 -22 -86 -11 -21 -24 -51 -27 -68 l-7 -29 -22 22 c-12
12 -26 22 -31 22 -12 0 -24 -37 -16 -50 3 -5 1 -10 -5 -10 -6 0 -8 -5 -4 -12
6 -9 9 -9 12 0 7 22 22 12 22 -15 0 -48 -26 -116 -46 -124 -10 -4 -13 -8 -6
-8 10 -1 10 -5 -2 -17 -9 -8 -16 -28 -16 -44 0 -16 -3 -30 -7 -33 -5 -2 -2 -2
6 0 8 2 11 -2 8 -12 -4 -9 5 -22 23 -35 41 -29 63 -94 56 -167 -8 -82 -10 -93
-15 -88 -2 3 -11 -4 -18 -15 -20 -28 -68 -51 -122 -59 -25 -3 -46 -11 -46 -18
0 -6 -3 -15 -7 -19 -5 -4 -8 -2 -8 5 0 7 -5 9 -12 5 -8 -5 -9 -2 -5 10 6 16 1
18 -43 14 -27 -1 -50 0 -50 5 0 4 5 7 10 7 6 0 10 7 10 16 0 8 -4 12 -10 9 -5
-3 -10 -1 -10 4 0 6 5 11 10 11 6 0 10 60 10 160 l0 160 36 0 c21 0 33 4 29
10 -3 6 1 10 9 10 9 0 16 -4 16 -10 0 -5 17 -10 39 -10 l39 0 -10 46 c-8 37
-7 48 3 56 9 6 5 6 -13 2 -19 -4 -32 0 -47 15 -21 21 -30 68 -11 56 6 -3 10
-3 10 0 0 3 -13 11 -30 16 -16 6 -30 14 -30 18 0 13 73 30 103 24 20 -4 27 -1
27 11 0 9 4 16 9 16 13 0 34 57 33 90 0 16 6 31 14 34 8 3 14 12 14 21 0 8 5
15 10 15 6 0 10 5 10 11 0 5 -4 7 -10 4 -6 -3 -7 1 -4 9 7 19 18 20 45 6 13
-8 19 -7 19 0 0 24 42 68 61 63 15 -4 19 -15 19 -54z m-960 -460 c0 6 8 11 18
11 14 0 15 -2 2 -10 -13 -8 -12 -10 3 -10 9 0 17 5 17 10 0 7 6 7 19 1 10 -6
20 -9 22 -6 2 2 2 -58 -1 -133 -6 -141 -20 -195 -56 -209 -13 -5 -13 -7 -2
-15 9 -6 6 -7 -9 -3 -13 3 -23 2 -23 -3 0 -15 -122 -8 -154 8 -59 30 -71 59
-75 191 -2 93 -6 119 -17 119 -16 0 -19 36 -4 45 6 3 7 -1 4 -9 -3 -9 -1 -16
5 -16 6 0 11 7 11 16 0 12 10 14 53 12 l52 -3 3 -125 c2 -94 6 -128 18 -141
18 -20 68 -23 60 -3 -3 8 0 11 10 7 13 -5 15 11 14 108 -2 179 -2 173 15 159
10 -9 15 -9 15 -1z m-520 -10 c53 -11 58 -20 38 -64 -10 -22 -16 -25 -42 -18
-81 19 -117 -7 -124 -89 -5 -71 21 -108 78 -108 21 0 50 4 64 10 25 9 26 9 26
-35 l0 -44 -56 -11 c-75 -16 -133 0 -174 46 -33 39 -44 83 -38 157 7 89 46
140 119 157 48 11 52 11 109 -1z m210 -180 l0 -179 -50 0 -50 0 0 179 c0 199
-3 191 68 183 l32 -4 0 -179z m707 182 c3 -2 -3 -27 -10 -38 -5 -7 -5 -17 -2
-23 3 -5 1 -10 -5 -10 -7 0 -9 -7 -6 -16 3 -8 2 -12 -4 -9 -6 3 -10 0 -10 -7
0 -9 -3 -9 -10 2 -5 8 -10 11 -10 6 0 -6 -5 -5 -12 2 -16 16 -50 15 -67 0 -11
-10 -13 -10 -7 0 4 6 2 12 -3 12 -6 0 -11 -7 -11 -15 0 -8 27 -28 59 -45 33
-16 63 -34 66 -40 5 -8 12 -7 23 2 14 10 15 10 6 -1 -7 -7 -10 -29 -7 -52 14
-102 -79 -160 -206 -129 l-51 12 0 45 c0 44 1 45 28 39 83 -20 145 -15 129 11
-3 5 -31 22 -63 38 -67 36 -85 60 -89 120 -3 41 0 48 28 69 18 13 41 26 52 29
15 4 170 2 182 -2z m810 -15 c50 -26 76 -80 76 -161 0 -108 -36 -163 -122
-185 -134 -34 -244 63 -228 201 14 115 81 175 188 166 31 -3 69 -12 86 -21z
m517 -15 c33 -31 35 -85 5 -117 l-20 -22 25 -25 c30 -31 35 -80 10 -116 -26
-37 -74 -51 -173 -51 l-90 0 -3 78 c-2 42 -2 124 0 182 l3 105 109 -5 c97 -5
111 -8 134 -29z m-3506 -3 c5 -18 19 -75 32 -126 l23 -92 31 122 32 123 56 3
56 3 -52 -164 c-29 -90 -55 -171 -59 -180 -5 -13 -20 -17 -65 -17 l-58 0 -54
168 c-29 92 -55 173 -58 180 -3 9 11 12 51 12 55 0 56 -1 65 -32z m372 -148
l0 -180 -50 0 -50 0 0 180 0 180 50 0 50 0 0 -180z m265 64 l60 -116 3 116 3
116 44 0 45 0 0 -180 0 -181 -66 3 -67 3 -63 120 -64 120 0 -122 0 -123 -45 0
-45 0 0 180 0 180 68 0 67 0 60 -116z m335 -64 l0 -180 -50 0 c-40 0 -50 3
-51 18 -1 13 0 325 1 340 0 1 23 2 50 2 l50 0 0 -180z m2843 169 c30 -8 42
-18 53 -44 15 -38 6 -80 -23 -102 -15 -11 -13 -15 10 -34 21 -15 27 -29 27
-58 0 -80 -53 -111 -190 -111 l-90 0 0 180 0 180 88 0 c48 0 104 -5 125 -11z
m352 -4 c58 -24 70 -90 24 -136 l-20 -20 25 -20 c20 -15 26 -30 26 -58 0 -80
-53 -111 -190 -111 l-90 0 0 180 0 180 95 0 c61 0 108 -5 130 -15z"/>
<path d="M3303 890 c-30 -12 -43 -41 -43 -95 0 -71 22 -105 71 -105 37 0 61
32 67 88 4 48 -17 112 -37 112 -5 0 -15 2 -23 4 -7 3 -23 1 -35 -4z"/>
<path d="M4180 4975 c0 -13 6 -28 13 -32 19 -13 37 -51 31 -67 -3 -8 -1 -17 5
-21 7 -3 11 2 11 14 0 12 4 21 8 21 8 0 7 -64 -2 -125 -3 -16 -2 -24 1 -17 8
20 23 14 23 -11 0 -13 5 -28 12 -35 6 -6 12 -20 13 -29 1 -10 5 -37 9 -60 7
-39 6 -43 -13 -43 -12 0 -21 -5 -21 -10 0 -22 30 -80 41 -80 6 0 20 -11 31
-25 11 -15 38 -30 64 -36 65 -17 92 -41 86 -78 -3 -21 -14 -36 -39 -51 l-34
-20 43 -41 c34 -32 48 -39 68 -34 14 4 25 7 25 8 1 1 18 23 39 50 35 44 40 47
85 47 59 0 97 -32 88 -76 -7 -39 28 -70 89 -79 28 -3 54 -5 60 -4 20 3 35 -1
29 -10 -3 -5 -2 -12 3 -15 4 -2 9 4 9 15 1 10 9 26 17 35 9 8 16 20 16 25 0
12 -27 12 -33 -1 -3 -6 -4 -5 -3 2 1 7 12 14 24 16 l22 3 0 395 0 394 -60 0
c-60 0 -60 0 -60 -29 0 -44 -23 -61 -81 -61 -34 0 -51 -5 -55 -14 -10 -27 -34
-25 -79 5 -48 33 -55 52 -28 81 15 17 14 18 -40 18 -31 0 -58 -4 -61 -9 -3 -5
-19 -14 -35 -19 -24 -8 -37 -7 -67 9 -31 15 -59 19 -146 19 -108 0 -108 0
-108 -25z m317 -346 c50 -17 54 -84 5 -107 -42 -20 -70 -14 -108 21 -34 31
-35 35 -23 55 12 20 51 38 85 41 6 1 25 -4 41 -10z m416 -61 c16 -20 16 -22
-5 -61 -34 -61 -111 -73 -166 -27 l-24 20 23 31 c48 68 129 85 172 37z"/>
<path d="M4430 4105 c-19 -7 -47 -14 -61 -14 -31 -1 -45 -15 -54 -54 -6 -21
-20 -34 -53 -50 -50 -24 -55 -31 -71 -102 -11 -46 -26 -67 -55 -78 -6 -3 26
-42 70 -88 89 -91 102 -121 77 -175 -15 -30 -19 -32 -87 -38 -82 -8 -123 -23
-129 -48 -3 -10 -12 -18 -21 -18 -24 0 -19 -17 7 -24 14 -3 27 -18 35 -40 7
-19 21 -36 32 -39 11 -3 20 -11 20 -17 0 -7 -6 -10 -14 -7 -25 10 -45 -37 -48
-107 -2 -53 -5 -66 -18 -66 -19 0 -40 -19 -40 -36 0 -7 14 -19 30 -28 26 -13
30 -13 30 0 0 8 10 19 23 24 12 5 16 9 10 9 -21 1 -15 21 5 21 24 0 60 31 55
46 -5 15 53 57 66 49 6 -3 11 18 13 51 3 61 23 84 34 40 7 -29 22 -34 30 -11
9 22 23 18 46 -10 18 -23 57 -37 44 -16 -10 15 5 41 23 41 11 0 22 -17 34 -49
9 -27 17 -51 17 -55 0 -3 -18 -6 -40 -6 -36 0 -40 -2 -40 -25 0 -15 6 -25 14
-25 12 0 22 -42 26 -110 2 -29 24 -105 34 -116 6 -6 18 -9 27 -7 10 3 25 -4
35 -15 9 -11 23 -18 30 -15 8 3 14 -2 14 -11 0 -15 -39 -38 -58 -35 -19 3 -25
-2 -12 -11 14 -9 9 -12 -16 -9 -12 1 -36 -55 -25 -59 6 -2 11 -12 11 -22 0
-10 5 -20 10 -22 6 -2 12 -13 13 -26 0 -12 5 -22 10 -22 5 0 7 -15 3 -32 -3
-18 -1 -51 5 -73 27 -110 17 -129 -73 -133 -39 -1 -82 -13 -137 -37 -106 -47
-133 -72 -132 -122 1 -21 1 -47 0 -58 -3 -26 -1 -107 3 -143 2 -19 22 -48 60
-86 31 -32 58 -60 60 -64 6 -15 137 -122 148 -122 6 0 8 -5 5 -10 -3 -5 -2
-10 3 -10 15 0 21 25 11 41 -13 21 -11 87 5 117 7 15 17 63 21 107 11 116 11
114 18 121 4 4 7 24 7 44 0 54 21 153 36 171 8 8 14 29 14 45 0 16 11 46 25
66 14 20 25 46 25 57 0 11 7 26 15 35 8 8 15 20 15 27 0 31 65 136 90 148 51
22 61 8 58 -80 -2 -52 1 -82 8 -87 7 -4 14 -18 15 -32 3 -19 11 -26 32 -28 29
-4 35 6 15 26 -10 10 -7 17 11 35 l23 22 -6 -22 c-8 -25 10 -103 24 -103 5 0
10 14 12 32 2 21 9 32 21 34 11 1 22 5 25 9 8 8 -19 25 -30 19 -4 -3 -8 2 -8
10 0 8 -9 23 -19 33 -11 10 -22 30 -26 46 -4 15 -11 27 -16 27 -13 0 -11 28 3
32 16 6 12 206 -4 225 -9 11 -8 21 6 43 13 24 15 34 5 51 -7 13 -8 39 -4 66 5
33 3 43 -5 38 -6 -4 -40 -2 -75 5 l-64 12 -24 62 c-29 71 -41 76 -113 48 -27
-10 -65 -18 -84 -18 l-35 1 -3 57 c-2 42 1 60 13 70 9 7 22 19 31 27 26 23
101 40 159 36 l55 -5 0 33 c0 51 -65 110 -85 77 -8 -13 -55 -13 -110 1 -38 10
-44 15 -50 46 -4 23 -2 40 7 52 8 9 23 33 33 54 22 42 47 53 100 43 27 -5 39
-2 55 14 26 26 26 50 0 50 -11 0 -20 4 -20 9 0 17 -45 20 -74 6 -31 -16 -89
-12 -113 8 -16 12 -16 45 1 75 16 29 81 71 156 99 23 9 20 12 -45 42 -39 18
-78 37 -87 42 -23 12 -35 11 -78 -6z"/>
<path d="M4844 3706 c-23 -6 -49 -17 -58 -25 -25 -21 -56 -90 -44 -97 6 -4 5
-10 -3 -15 -10 -6 -10 -9 -2 -9 6 0 15 5 18 10 3 6 35 10 71 10 35 0 64 4 64
9 0 5 14 14 30 21 32 13 40 30 15 30 -8 0 -12 6 -10 13 3 6 -5 24 -17 38 -21
24 -26 25 -64 15z"/>
<path d="M4838 3456 c-21 -5 -38 -13 -38 -18 0 -4 -7 -8 -15 -8 -11 0 -15 -12
-15 -45 0 -51 16 -65 73 -65 41 0 48 12 53 86 5 59 -2 65 -58 50z"/>
<path d="M3550 2961 c0 -11 -4 -22 -8 -25 -4 -2 -9 -24 -11 -47 -1 -23 -5 -49
-10 -58 -6 -13 -12 -109 -14 -211 0 -65 4 -80 27 -95 23 -15 26 -15 45 4 12
12 21 25 21 29 0 19 39 44 59 37 15 -5 21 -2 21 9 0 9 5 16 10 16 6 0 10 -4
10 -9 0 -6 -4 -13 -10 -16 -13 -8 -13 -45 -1 -45 5 0 16 7 25 15 8 8 20 15 26
15 23 0 42 30 36 58 -3 15 -6 52 -7 82 -1 30 -8 65 -15 77 -11 18 -11 23 1 33
8 7 15 22 15 34 0 26 -45 76 -68 76 -10 0 -28 7 -40 16 -12 8 -26 13 -31 9 -5
-3 -12 -1 -16 5 -3 5 -19 10 -36 10 -22 0 -29 -5 -29 -19z"/>
</g>
</svg>
